<svg viewBox="0 0 330 200" xmlns="http://www.w3.org/2000/svg"><g><g><g><g><g><line x1="41.54500102996826" y1="176.9089994430542" x2="36.54500102996826" y2="176.9089994430542" style="visibility: inherit;" fill="rgb(0, 0, 0)" stroke="rgb(204, 204, 204)" stroke-width="1px"></line><line x1="41.54500102996826" y1="154.79537451267242" x2="36.54500102996826" y2="154.79537451267242" style="visibility: inherit;" fill="rgb(0, 0, 0)" stroke="rgb(204, 204, 204)" stroke-width="1px"></line><line x1="41.54500102996826" y1="132.68174958229065" x2="36.54500102996826" y2="132.68174958229065" style="visibility: inherit;" fill="rgb(0, 0, 0)" stroke="rgb(204, 204, 204)" stroke-width="1px"></line><line x1="41.54500102996826" y1="110.56812465190887" x2="36.54500102996826" y2="110.56812465190887" style="visibility: inherit;" fill="rgb(0, 0, 0)" stroke="rgb(204, 204, 204)" stroke-width="1px"></line><line x1="41.54500102996826" y1="88.4544997215271" x2="36.54500102996826" y2="88.4544997215271" style="visibility: inherit;" fill="rgb(0, 0, 0)" stroke="rgb(204, 204, 204)" stroke-width="1px"></line><line x1="41.54500102996826" y1="66.34087479114532" x2="36.54500102996826" y2="66.34087479114532" style="visibility: inherit;" fill="rgb(0, 0, 0)" stroke="rgb(204, 204, 204)" stroke-width="1px"></line><line x1="41.54500102996826" y1="44.22724986076353" x2="36.54500102996826" y2="44.22724986076353" style="visibility: inherit;" fill="rgb(0, 0, 0)" stroke="rgb(204, 204, 204)" stroke-width="1px"></line><line x1="41.54500102996826" y1="22.113624930381796" x2="36.54500102996826" y2="22.113624930381796" style="visibility: inherit;" fill="rgb(0, 0, 0)" stroke="rgb(204, 204, 204)" stroke-width="1px"></line><line x1="41.54500102996826" y1="0" x2="36.54500102996826" y2="0" style="visibility: inherit;" fill="rgb(0, 0, 0)" stroke="rgb(204, 204, 204)" stroke-width="1px"></line></g><g transform="translate(31.54500102996826, 0)"><text style="text-anchor: end; visibility: hidden; font-family: Roboto, sans-serif; font-size: 12px; font-weight: 200;" x="0" y="176.9089994430542" dx="0em" dy="0.3em" fill="rgb(33, 33, 33)" stroke="none" stroke-width="1px">1</text><text style="text-anchor: end; visibility: inherit; font-family: Roboto, sans-serif; font-size: 12px; font-weight: 200;" x="0" y="154.79537451267242" dx="0em" dy="0.3em" fill="rgb(33, 33, 33)" stroke="none" stroke-width="1px">1.2</text><text style="text-anchor: end; visibility: hidden; font-family: Roboto, sans-serif; font-size: 12px; font-weight: 200;" x="0" y="132.68174958229065" dx="0em" dy="0.3em" fill="rgb(33, 33, 33)" stroke="none" stroke-width="1px">1.4</text><text style="text-anchor: end; visibility: inherit; font-family: Roboto, sans-serif; font-size: 12px; font-weight: 200;" x="0" y="110.56812465190887" dx="0em" dy="0.3em" fill="rgb(33, 33, 33)" stroke="none" stroke-width="1px">1.6</text><text style="text-anchor: end; visibility: hidden; font-family: Roboto, sans-serif; font-size: 12px; font-weight: 200;" x="0" y="88.4544997215271" dx="0em" dy="0.3em" fill="rgb(33, 33, 33)" stroke="none" stroke-width="1px">1.8</text><text style="text-anchor: end; visibility: inherit; font-family: Roboto, sans-serif; font-size: 12px; font-weight: 200;" x="0" y="66.34087479114532" dx="0em" dy="0.3em" fill="rgb(33, 33, 33)" stroke="none" stroke-width="1px">2</text><text style="text-anchor: end; visibility: hidden; font-family: Roboto, sans-serif; font-size: 12px; font-weight: 200;" x="0" y="44.22724986076353" dx="0em" dy="0.3em" fill="rgb(33, 33, 33)" stroke="none" stroke-width="1px">2.2</text><text style="text-anchor: end; visibility: inherit; font-family: Roboto, sans-serif; font-size: 12px; font-weight: 200;" x="0" y="22.113624930381796" dx="0em" dy="0.3em" fill="rgb(33, 33, 33)" stroke="none" stroke-width="1px">2.4</text><text style="text-anchor: end; visibility: hidden; font-family: Roboto, sans-serif; font-size: 12px; font-weight: 200;" x="0" y="0" dx="0em" dy="0.3em" fill="rgb(33, 33, 33)" stroke="none" stroke-width="1px">2.6</text></g><line x1="41.54500102996826" y1="0" x2="41.54500102996826" y2="176.9089994430542" fill="rgb(0, 0, 0)" stroke="rgb(204, 204, 204)" stroke-width="1px"></line></g></g><g transform="translate(41, 0)" clip-path="url(#clip_0)"><clipPath id="clip_0"><rect width="288" height="176"></rect></clipPath><g><g><g><line x1="0" y1="0" x2="0" y2="176.9089994430542" fill="rgb(0, 0, 0)" stroke="rgb(66, 66, 66)" stroke-width="1px" opacity="0.25"></line><line x1="36.05687487125397" y1="0" x2="36.05687487125397" y2="176.9089994430542" fill="rgb(0, 0, 0)" stroke="rgb(66, 66, 66)" stroke-width="1px" opacity="0.25"></line><line x1="72.11374974250793" y1="0" x2="72.11374974250793" y2="176.9089994430542" fill="rgb(0, 0, 0)" stroke="rgb(66, 66, 66)" stroke-width="1px" opacity="0.25"></line><line x1="108.1706246137619" y1="0" x2="108.1706246137619" y2="176.9089994430542" fill="rgb(0, 0, 0)" stroke="rgb(66, 66, 66)" stroke-width="1px" opacity="0.25"></line><line x1="144.22749948501587" y1="0" x2="144.22749948501587" y2="176.9089994430542" fill="rgb(0, 0, 0)" stroke="rgb(66, 66, 66)" stroke-width="1px" opacity="0.25"></line><line x1="180.28437435626984" y1="0" x2="180.28437435626984" y2="176.9089994430542" fill="rgb(0, 0, 0)" stroke="rgb(66, 66, 66)" stroke-width="1px" opacity="0.25"></line><line x1="216.3412492275238" y1="0" x2="216.3412492275238" y2="176.9089994430542" fill="rgb(0, 0, 0)" stroke="rgb(66, 66, 66)" stroke-width="1px" opacity="0.25"></line><line x1="252.39812409877777" y1="0" x2="252.39812409877777" y2="176.9089994430542" fill="rgb(0, 0, 0)" stroke="rgb(66, 66, 66)" stroke-width="1px" opacity="0.25"></line><line x1="288.45499897003174" y1="0" x2="288.45499897003174" y2="176.9089994430542" fill="rgb(0, 0, 0)" stroke="rgb(66, 66, 66)" stroke-width="1px" opacity="0.25"></line></g><g><line x1="0" y1="176.9089994430542" x2="288.45499897003174" y2="176.9089994430542" fill="rgb(0, 0, 0)" stroke="rgb(66, 66, 66)" stroke-width="1px" opacity="0.25"></line><line x1="0" y1="154.79537451267242" x2="288.45499897003174" y2="154.79537451267242" fill="rgb(0, 0, 0)" stroke="rgb(66, 66, 66)" stroke-width="1px" opacity="0.25"></line><line x1="0" y1="132.68174958229065" x2="288.45499897003174" y2="132.68174958229065" fill="rgb(0, 0, 0)" stroke="rgb(66, 66, 66)" stroke-width="1px" opacity="0.25"></line><line x1="0" y1="110.56812465190887" x2="288.45499897003174" y2="110.56812465190887" fill="rgb(0, 0, 0)" stroke="rgb(66, 66, 66)" stroke-width="1px" opacity="0.25"></line><line x1="0" y1="88.4544997215271" x2="288.45499897003174" y2="88.4544997215271" fill="rgb(0, 0, 0)" stroke="rgb(66, 66, 66)" stroke-width="1px" opacity="0.25"></line><line x1="0" y1="66.34087479114532" x2="288.45499897003174" y2="66.34087479114532" fill="rgb(0, 0, 0)" stroke="rgb(66, 66, 66)" stroke-width="1px" opacity="0.25"></line><line x1="0" y1="44.22724986076353" x2="288.45499897003174" y2="44.22724986076353" fill="rgb(0, 0, 0)" stroke="rgb(66, 66, 66)" stroke-width="1px" opacity="0.25"></line><line x1="0" y1="22.113624930381796" x2="288.45499897003174" y2="22.113624930381796" fill="rgb(0, 0, 0)" stroke="rgb(66, 66, 66)" stroke-width="1px" opacity="0.25"></line><line x1="0" y1="0" x2="288.45499897003174" y2="0" fill="rgb(0, 0, 0)" stroke="rgb(66, 66, 66)" stroke-width="1px" opacity="0.25"></line></g></g></g><g><g><line x1="0" y1="287.4771240949631" x2="288.45499897003174" y2="287.4771240949631" fill="rgb(0, 0, 0)" stroke="rgb(153, 153, 153)" stroke-width="1.5px"></line></g></g><g><g><line x1="36.05687487125397" y1="0" x2="36.05687487125397" y2="176.9089994430542" fill="rgb(0, 0, 0)" stroke="rgb(153, 153, 153)" stroke-width="1.5px"></line></g></g><g><g><g><g><g><path style="fill: none;" stroke="rgb(51, 187, 238)" stroke-width="2px" d="M36.27321612048149,155.31366259697825L36.345329870224,150.99459522776306L37.06646736764908,47.33697836659849L37.13858111739159,59.43036700040102L37.354922366619114,55.97511310502887L37.42703611636162,54.24748615734279L37.499149866104126,69.79612868651748L37.643377365589146,77.57044995110482L37.71549111533165,84.48095774184912L37.93183236455918,108.66773500945419L38.003946114301684,93.1190924802795L38.941424860954285,77.57044995110482L39.44622110915184,61.157993948087096L39.51833485889435,57.702740052714944L39.59044860863686,66.34087479114532L39.734676108121874,74.11519605573267L39.9510173573494,115.5782428001985L40.167358606576926,129.3992583816871L40.383699855804444,122.4887505909428L40.45581360554696,122.4887505909428L40.527927355289464,96.57434637565166L40.60004110503196,106.94010806176811L40.81638235425949,61.157993948087096L40.888496104001995,68.0685017388314L40.9606098537445,71.52375563420355L41.10483735322952,71.52375563420355L41.176951102972026,62.88562089577317L41.60963360142708,74.9790095295757L41.970202350139616,77.57044995110482L42.47499859833717,70.65994216036052L43.19613609576225,61.157993948087096L43.48459109473228,80.16189037263393L43.700932343959806,82.75333079416305L43.77304609370231,81.88951732032001L43.91727359318733,55.97511310502887L44.42206984138489,79.2980768987909L44.78263859009743,80.16189037263393L45.07109358906746,93.98290595412254L45.143207338809965,100.02960027102381L45.287434838294985,127.67163143400103L45.43166233778,166.54323775693774L45.86434483623505,129.3992583816871L45.936458585977554,122.4887505909428L46.44125483417511,87.93621163722128L46.585482333660124,45.60935141891241L46.65759608340264,72.38756910804659L46.873937332630156,81.02570384647697L47.37873358082771,119.89731016941369L47.59507483005524,147.5393413323909L47.73930232954026,144.08408743701875L47.88352982902527,136.3097661724314L48.31621232748032,93.1190924802795L48.38832607722283,99.16578679718077L48.460439826965334,124.21637753862888L48.82100857567787,113.85061585251242L49.32580482387543,49.06460531428456L49.397918573617936,73.25138258188963L49.47003232336045,64.61324784345925L49.758487322330474,81.02570384647697L49.83060107207298,92.25527900643647L49.902714821815486,99.16578679718077L50.407511070013044,110.39536195714027L50.62385231924057,82.75333079416305L50.695966068983076,64.61324784345925L50.76807981872558,79.2980768987909L50.84019356846809,52.519859209656715L50.98442106795311,62.88562089577317L51.27287606692314,106.07629458792508L51.41710356640815,94.84671942796558L51.56133106589317,108.66773500945419L51.8497860648632,107.80392153561115L51.92189981460571,106.94010806176811L51.99401356434822,106.94010806176811L52.21035481357574,111.2591754309833L52.570923562288286,132.85451227705926L53.29206105971336,69.79612868651748L53.6526298084259,64.61324784345925L53.72474355816841,52.519859209656715L53.79685730791092,88.80002511106431L54.662222304821015,110.39536195714027L54.73433605456352,123.35256406478584L54.806449804306034,135.44595269858837L55.599701051473616,103.48485416639596L55.81604230070114,52.519859209656715L55.96026980018616,62.88562089577317L56.10449729967117,67.20468826498836L56.392952298641205,74.9790095295757L56.60929354786873,80.16189037263393L56.82563479709626,74.11519605573267L56.96986229658127,89.66383858490735L57.330431045293814,96.57434637565166L57.474658544778826,125.08019101247191L57.54677229452133,146.67552785854787L58.123682292461396,119.89731016941369L58.267909791946416,99.16578679718077L58.55636479091645,54.24748615734279L58.84481978988647,86.2085846895352L58.989047289371484,88.80002511106431L59.061161039114,91.39146553259343L59.277502288341516,67.20468826498836L60.35920853447914,106.07629458792508L60.43132228422164,99.16578679718077L60.79189103293419,78.43426342494786L60.9361185324192,71.52375563420355L61.008232282161714,75.84282300341874L61.44091478061676,81.02570384647697L61.58514228010178,81.02570384647697L61.87359727907181,73.25138258188963L62.16205227804184,62.88562089577317L62.23416602778435,50.79223226197064L62.30627977752685,67.20468826498836L62.37839352726936,77.57044995110482L62.45050727701187,85.34477121569216L62.52262102675438,99.16578679718077L63.31587227392197,112.98680237866938L63.89278227186203,102.62104069255292L64.18123727083206,106.94010806176811L64.32546477031708,122.4887505909428L64.4696922698021,113.85061585251242L64.68603351902962,123.35256406478584L65.04660226774216,91.39146553259343L65.19082976722717,96.57434637565166L65.55139851593971,59.43036700040102L65.91196726465226,45.60935141891241L65.98408101439476,69.79612868651748L66.41676351284981,62.88562089577317L66.48887726259233,71.52375563420355L66.77733226156235,81.02570384647697L67.06578726053239,107.80392153561115L67.42635600924493,102.62104069255292L67.49846975898743,108.66773500945419L67.57058350872994,122.4887505909428L67.71481100821495,106.07629458792508L68.00326600718498,109.53154848329723L68.07537975692749,113.85061585251242L68.2196072564125,106.94010806176811L68.50806225538254,128.53544490784407L68.65228975486755,124.21637753862888L68.94074475383758,123.35256406478584L69.22919975280762,90.52765205875039L69.30131350255012,108.66773500945419L69.58976850152015,73.25138258188963L69.66188225126267,74.11519605573267L69.80610975074768,95.71053290180862L69.95033725023269,97.4381598494947L70.23879224920273,109.53154848329723L70.31090599894523,122.4887505909428L70.67147474765777,82.75333079416305L70.74358849740028,83.61714426800609L71.17627099585533,86.2085846895352L71.24838474559783,102.62104069255292L71.32049849534035,93.1190924802795L71.68106724405288,69.79612868651748L71.96952224302292,79.2980768987909L72.7627734901905,78.43426342494786L72.83488723993301,73.25138258188963L72.90700098967551,74.11519605573267L72.97911473941804,82.75333079416305L73.05122848916054,93.98290595412254L73.12334223890305,84.48095774184912L73.33968348813056,90.52765205875039L73.41179723787307,100.89341374486685L73.48391098761557,101.75722721870989L74.49350348401069,75.84282300341874L74.5656172337532,68.0685017388314L74.70984473323823,69.79612868651748L74.78195848298073,62.88562089577317L74.85407223272324,59.43036700040102L74.99829973220825,77.57044995110482L75.14252723169326,88.80002511106431L75.28675473117829,97.4381598494947L75.4309822306633,74.11519605573267L75.5030959804058,79.2980768987909L75.71943722963333,66.34087479114532L75.86366472911836,69.79612868651748L76.08000597834587,83.61714426800609L76.15211972808838,66.34087479114532L76.58480222654343,64.61324784345925L76.72902972602844,62.88562089577317L77.01748472499848,114.71442932635546L77.233825974226,155.31366259697825L77.378053473711,151.8584087016061L77.59439472293855,129.3992583816871L78.17130472087861,187.70666786609218L78.24341847062111,185.9790409184061L78.45975971984863,159.63272996619344L78.60398721933366,144.9479009108618L78.67610096907616,126.80781796015799L78.89244221830369,111.2591754309833L79.0366697177887,105.21248111408204L79.18089721727372,61.157993948087096L79.25301096701622,62.88562089577317L79.46935221624375,62.88562089577317L79.54146596598625,71.52375563420355L79.9020347146988,78.43426342494786L80.26260346341132,87.93621163722128L80.33471721315385,74.11519605573267L80.47894471263886,61.157993948087096L80.91162721109391,81.02570384647697L80.98374096083641,97.4381598494947L81.20008221006393,54.24748615734279L81.34430970954894,74.11519605573267L81.41642345929147,82.75333079416305L81.70487845826149,94.84671942796558L81.99333345723153,111.2591754309833L82.20967470645904,126.80781796015799L82.28178845620155,136.3097661724314L82.35390220594405,147.5393413323909L82.42601595568657,175.18137249536812L82.49812970542906,186.41094765532762L83.07503970336913,198.07242955220863L83.21926720285416,170.86230512615293L83.29138095259667,171.72611859999597L83.50772220182418,168.27086470462382L83.65194970130919,135.44595269858837L84.15674594950676,86.2085846895352L84.37308719873428,52.519859209656715L84.73365594744682,81.88951732032001L84.80576969718932,87.93621163722128L85.09422469615936,57.702740052714944L85.3826796951294,86.2085846895352L85.59902094435692,86.2085846895352L85.95958969306946,114.71442932635546L86.10381719255447,87.07239816337824L86.24804469203949,118.16968322172761L86.320158441782,108.66773500945419L86.46438594126703,107.80392153561115L86.68072719049454,113.85061585251242L86.89706843972206,125.94400448631495L87.2576371884346,142.35646048933268L87.61820593714715,78.43426342494786L87.76243343663216,78.43426342494786L87.97877468585968,89.66383858490735L88.05088843560219,55.97511310502887L88.19511593508722,50.79223226197064L88.33934343457223,59.43036700040102L88.41145718431473,45.60935141891241L88.55568468379974,81.88951732032001L88.62779843354225,79.2980768987909L88.77202593302728,74.11519605573267L88.84413968276978,73.25138258188963L88.91625343251229,71.52375563420355L89.27682218122482,61.157993948087096L89.56527718019485,66.34087479114532L89.70950467967987,68.93231521267444L90.57486967658997,119.03349669557065L90.71909717607498,127.67163143400103L91.15177967453003,76.70663647726178L91.22389342427253,81.02570384647697L91.51234842324256,98.30197332333773L91.7286896724701,89.66383858490735L91.94503092169761,71.52375563420355L92.01714467144012,72.38756910804659L92.16137217092515,95.71053290180862L92.23348592066765,99.16578679718077L92.30559967041016,85.34477121569216L92.44982716989517,82.75333079416305L92.88250966835022,106.94010806176811L94.03632966423035,104.348667640239L94.10844341397285,93.98290595412254L94.18055716371536,103.48485416639596L94.25267091345786,81.02570384647697L94.4690121626854,71.52375563420355L95.04592216062547,74.9790095295757L95.11803591036796,87.07239816337824L95.76705965805054,62.88562089577317L96.05551465702058,28.33308194205165L96.12762840676308,77.57044995110482L96.27185590624809,88.80002511106431L96.3439696559906,86.2085846895352L96.56031090521812,99.16578679718077L96.63242465496064,100.02960027102381L96.84876590418816,115.5782428001985L96.99299340367317,121.62493711709976L97.42567590212822,106.07629458792508L97.85835840058327,120.76112364325672L98.0746996498108,144.9479009108618L98.21892714929581,155.31366259697825L98.43526839852333,138.90120659396052L98.50738214826585,144.9479009108618L98.79583714723587,157.04128954466432L98.86795089697837,166.54323775693774L99.80542964363097,152.72222217544913L99.94965714311599,157.90510301850736L100.23811214208602,138.03739312011749L100.38233964157104,106.07629458792508L100.59868089079858,116.44205627404153L100.74290839028359,112.12298890482634L100.81502214002609,113.85061585251242L101.03136338925361,113.85061585251242L101.10347713899611,108.66773500945419L101.46404588770866,98.30197332333773L101.53615963745116,114.71442932635546L101.68038713693618,108.66773500945419L101.7525008866787,111.2591754309833L102.25729713487624,82.75333079416305L102.32941088461877,86.2085846895352L102.47363838410378,75.84282300341874L102.97843463230133,71.52375563420355L103.12266213178634,66.34087479114532L103.19477588152886,57.702740052714944L103.26688963127135,88.80002511106431L103.77168587946892,87.07239816337824L103.98802712869644,54.24748615734279L104.20436837792397,67.20468826498836L104.49282337689401,72.38756910804659L104.70916462612152,57.702740052714944L104.92550587534905,82.75333079416305L105.28607462406158,77.57044995110482L105.50241587328911,55.97511310502887L105.64664337277414,76.70663647726178L105.79087087225915,93.1190924802795L105.86298462200165,98.30197332333773L106.58412211942672,97.4381598494947L106.65623586916924,97.4381598494947L106.87257711839676,119.03349669557065L107.16103211736679,122.4887505909428L107.44948711633683,96.57434637565166L107.59371461582184,78.43426342494786L107.73794211530685,105.21248111408204L107.88216961479186,71.52375563420355L108.0985108640194,61.157993948087096L108.31485211324691,84.48095774184912L108.38696586298941,96.57434637565166L108.45907961273194,100.02960027102381L108.60330711221695,111.2591754309833L108.96387586092948,100.89341374486685L109.1081033604145,70.65994216036052L109.25233085989952,70.65994216036052L109.75712710809708,81.88951732032001L110.0455821070671,78.43426342494786L110.18980960655213,55.97511310502887L110.69460585474967,57.702740052714944L110.7667196044922,55.97511310502887L110.8388333542347,72.38756910804659L110.91094710397721,78.43426342494786L110.9830608537197,78.43426342494786L111.27151585268973,89.66383858490735L111.48785710191727,86.2085846895352L112.20899459934235,81.88951732032001L112.35322209882736,54.24748615734279L112.49744959831239,95.71053290180862L112.6416770977974,99.16578679718077L112.85801834702491,85.34477121569216L113.00224584650994,80.16189037263393L113.14647334599495,104.348667640239L113.21858709573746,118.16968322172761L113.29070084547996,125.94400448631495L113.36281459522247,115.5782428001985L113.43492834496497,142.35646048933268L113.72338334393501,119.03349669557065L113.93972459316254,91.39146553259343L114.30029334187508,94.84671942796558L114.37240709161759,81.88951732032001L114.44452084136009,70.65994216036052L114.73297584033013,61.157993948087096L115.23777208852769,110.39536195714027L115.52622708749772,113.85061585251242L115.59834083724022,110.39536195714027L115.67045458698273,91.39146553259343L115.88679583621025,84.48095774184912L116.03102333569527,93.98290595412254L116.17525083518028,69.79612868651748L116.24736458492279,57.702740052714944L116.39159208440782,70.65994216036052L116.75216083312034,100.89341374486685L116.89638833260535,94.84671942796558L116.96850208234788,87.07239816337824L117.1848433315754,84.48095774184912L117.25695708131789,92.25527900643647L117.4011845808029,70.65994216036052L117.47329833054543,74.11519605573267L117.68963957977294,104.348667640239L117.83386707925796,72.38756910804659L118.19443582797051,66.34087479114532L118.69923207616806,75.84282300341874L118.98768707513808,88.80002511106431L119.0598008248806,87.93621163722128L119.1319145746231,76.70663647726178L119.85305207204819,101.75722721870989L119.9972795715332,70.65994216036052L120.21362082076072,77.57044995110482L120.71841706895827,49.06460531428456L120.86264456844329,75.84282300341874L120.93475831818581,82.75333079416305L121.00687206792831,81.02570384647697L121.29532706689834,78.43426342494786L121.43955456638336,100.02960027102381L121.58378206586838,92.25527900643647L121.8001233150959,121.62493711709976L122.08857831406594,95.71053290180862L122.16069206380844,106.94010806176811L122.37703331303597,100.02960027102381L122.95394331097603,64.61324784345925L123.02605706071853,61.157993948087096L123.09817081046106,82.75333079416305L123.60296705865859,97.4381598494947L123.89142205762863,112.12298890482634L124.25199080634118,113.85061585251242L124.3962183058262,118.16968322172761L124.68467330479622,91.39146553259343L124.90101455402375,93.1190924802795L125.33369705247878,84.48095774184912L125.76637955093383,62.88562089577317L125.91060705041885,62.88562089577317L126.12694829964639,66.34087479114532L126.19906204938889,62.88562089577317L126.27117579913138,67.20468826498836L126.3432895488739,86.2085846895352L126.48751704835892,117.30586974788457L126.63174454784394,123.35256406478584L126.70385829758644,122.4887505909428L126.92019954681396,134.58213922474533L126.99231329655646,125.08019101247191L127.42499579501151,151.8584087016061L127.71345079398155,137.17357964627445L128.0740195426941,141.49264701548964L128.1461332924366,138.03739312011749L128.21824704217912,155.31366259697825L128.50670204114914,189.86620155069977L128.72304329037667,206.710564290639L129.08361203908922,169.13467817846686L129.29995328831671,132.85451227705926L129.66052203702927,119.03349669557065L129.73263578677177,93.98290595412254L129.9489770359993,100.02960027102381L130.23743203496934,102.62104069255292L130.52588703393937,68.0685017388314L130.8864557826519,67.20468826498836L131.24702453136445,101.75722721870989L131.39125203084947,122.4887505909428L131.60759328007697,115.5782428001985L131.6797070298195,100.02960027102381L131.82393452930452,106.07629458792508L132.32873077750205,146.67552785854787L133.04986827492715,87.07239816337824L133.26620952415468,79.2980768987909L133.69889202260973,82.75333079416305L134.13157452106478,96.57434637565166L134.4200295200348,122.4887505909428L134.4921432697773,125.94400448631495L134.5642570195198,139.76502006780356L134.6363707692623,130.26307185553014L134.70848451900483,115.5782428001985L135.21328076720238,114.71442932635546L135.28539451694488,108.66773500945419L135.5738495159149,94.84671942796558L136.00653201436995,74.9790095295757L136.29498701333998,88.80002511106431L136.51132826256753,77.57044995110482L136.79978326153756,81.02570384647697L138.2420582563877,82.75333079416305L138.53051325535773,55.97511310502887L139.25165075278284,55.97511310502887L139.61221950149536,115.5782428001985L139.7564470009804,115.5782428001985L139.8285607507229,116.44205627404153L139.90067450046539,110.39536195714027L139.9727882502079,106.94010806176811L140.54969824814796,138.90120659396052L140.693925747633,144.08408743701875L140.982380746603,144.9479009108618L141.12660824608804,130.26307185553014L141.19872199583054,124.21637753862888L141.34294949531554,104.348667640239L141.41506324505806,108.66773500945419L142.28042824196817,119.89731016941369L142.35254199171067,94.84671942796558L142.49676949119566,112.12298890482634L143.00156573939324,108.66773500945419L143.29002073836327,131.99069880321622L143.5063619875908,134.58213922474533L143.79481698656082,150.13078175392002L144.08327198553084,157.04128954466432L144.15538573527337,167.40705123078078L144.37172698450087,160.49654344003648L144.87652323269845,119.89731016941369L144.94863698244095,117.30586974788457L145.02075073218347,92.25527900643647L145.16497823166847,87.07239816337824L145.381319480896,57.702740052714944L146.2466844778061,95.71053290180862L146.67936697626112,140.6288335416466L146.89570822548865,133.7183257509023L146.96782197523115,127.67163143400103L147.1841632244587,131.12688532937318L147.68895947265625,111.2591754309833L147.90530072188378,121.62493711709976L147.97741447162628,90.52765205875039L148.69855196905135,78.43426342494786L148.91489321827888,86.2085846895352L148.98700696802138,91.39146553259343L149.1312344675064,97.4381598494947L149.34757571673396,97.4381598494947L149.41968946647646,92.25527900643647L149.49180321621895,84.48095774184912L149.70814446544648,74.9790095295757L149.9965994644165,82.75333079416305L150.35716821312903,75.84282300341874L151.07830571055413,61.157993948087096L151.15041946029663,66.34087479114532L151.22253321003913,64.61324784345925L151.51098820900916,64.61324784345925L151.58310195875166,78.43426342494786L151.6552157084942,88.80002511106431L152.23212570643426,113.85061585251242L153.38594570231436,133.7183257509023L153.67440070128438,112.12298890482634L153.96285570025444,112.98680237866938L154.10708319973946,119.89731016941369L154.323424448967,102.62104069255292L154.3955381987095,111.2591754309833L154.756106947422,139.76502006780356L154.8282206971645,122.4887505909428L155.11667569613456,108.66773500945419L155.3330169453621,66.34087479114532L155.47724444484712,69.79612868651748L155.90992694330214,61.157993948087096L156.1983819422722,50.79223226197064L156.48683694124222,78.43426342494786L156.77529194021224,79.2980768987909L156.99163318943977,74.9790095295757L157.13586068892477,82.75333079416305L157.56854318737984,64.61324784345925L157.64065693712234,64.61324784345925L157.71277068686484,74.11519605573267L157.78488443660737,70.65994216036052L158.1454531853199,59.43036700040102L158.2175669350624,74.9790095295757L158.2896806848049,64.61324784345925L158.79447693300247,55.97511310502887L158.9387044324875,68.93231521267444L159.155045681715,80.16189037263393L159.29927318120002,97.4381598494947L159.37138693094252,93.98290595412254L159.44350068068502,92.25527900643647L159.51561443042758,103.48485416639596L159.9482969288826,162.22417038772255L160.23675192785262,163.0879838615656L160.30886567759512,170.86230512615293L160.38097942733765,188.1385746030137L164.20300816369058,178.20471965381876L164.41934941291808,157.90510301850736L164.7078044118881,180.36425333842635L166.00585190725326,196.77670934144408L166.4385344057083,172.589932073839L166.58276190519334,169.13467817846686L167.23178565287589,165.6794242830947L167.52024065184594,163.95179733540863L167.73658190107346,165.6794242830947L167.80869565081596,150.13078175392002L167.952923150301,132.85451227705926L168.0250369000435,144.9479009108618L168.1692643995285,122.4887505909428L168.4577193984985,106.94010806176811L168.60194689798357,101.75722721870989L169.10674314618112,122.4887505909428L169.25097064566611,90.52765205875039L169.3230843954086,86.2085846895352L169.53942564463614,83.61714426800609L170.18844939231872,77.57044995110482L170.54901814103127,101.75722721870989L170.62113189077377,86.2085846895352L170.69324564051627,87.07239816337824L171.05381438922882,114.71442932635546L171.19804188871385,118.16968322172761L171.63072438716887,112.12298890482634L171.84706563639642,112.12298890482634L171.91917938613892,123.35256406478584L172.06340688562395,138.03739312011749L172.20763438510895,125.08019101247191L172.35186188459397,119.03349669557065L172.7124306333065,100.02960027102381L173.00088563227655,111.2591754309833L173.21722688150408,99.16578679718077L173.6499093799591,104.348667640239L173.7220231297016,106.94010806176811L173.79413687944412,121.62493711709976L174.01047812867162,135.44595269858837L174.3710468773842,152.72222217544913L174.80372937583923,170.86230512615293L174.87584312558172,176.04518596921116L175.59698062300683,114.71442932635546L175.66909437274933,90.52765205875039L175.95754937171935,98.30197332333773L176.02966312146185,100.02960027102381L176.10177687120438,97.4381598494947L176.31811812043188,89.66383858490735L176.46234561991693,109.53154848329723L176.67868686914446,98.30197332333773L176.89502811837195,117.30586974788457L177.11136936759948,130.26307185553014L177.3998243665695,98.30197332333773L177.471938116312,80.16189037263393L177.54405186605456,79.2980768987909L177.61616561579706,83.61714426800609L177.68827936553956,68.0685017388314L177.83250686502458,81.02570384647697L177.90462061476708,84.48095774184912L177.97673436450958,103.48485416639596L178.62575811219213,59.43036700040102L178.76998561167719,79.2980768987909L178.91421311116218,64.61324784345925L179.34689560961723,89.66383858490735L179.41900935935973,76.70663647726178L179.63535060858726,57.702740052714944L181.51030810189246,96.57434637565166L181.7987631008625,93.98290595412254L181.870876850605,107.80392153561115L182.15933184957504,123.35256406478584L182.30355934906007,123.35256406478584L182.5199005982876,128.53544490784407L182.80835559725762,144.08408743701875L182.88046934700012,156.17747607082129L183.16892434597017,157.04128954466432L183.3852655951977,156.17747607082129L183.67372059416772,144.9479009108618L184.17851684236524,115.5782428001985L184.2506305921078,100.89341374486685L184.3227443418503,102.62104069255292L185.11599558901787,145.81171438470483L185.18810933876037,156.17747607082129L185.33233683824537,149.26696828007698L185.62079183721542,131.99069880321622L185.98136058592797,139.76502006780356L186.4861568341255,138.90120659396052L186.55827058386805,136.3097661724314L186.70249808335305,150.13078175392002L186.84672558283808,140.6288335416466L187.1351805818081,158.7689164923504L187.2794080812931,142.35646048933268L187.3515218310356,139.76502006780356L187.49574933052062,145.81171438470483L187.71209057974818,160.49654344003648L187.85631807923318,163.0879838615656L188.1447730782032,148.40315480623394L188.2168868279457,131.99069880321622L188.50534182691572,119.03349669557065L188.57745557665825,102.62104069255292L188.8659105756283,104.348667640239L188.9380243253708,112.12298890482634L189.15436557459833,102.62104069255292L189.22647932434083,99.16578679718077L189.44282057356833,124.21637753862888L190.0197305715084,97.4381598494947L190.09184432125093,106.07629458792508L190.30818557047843,104.348667640239L190.59664056944845,90.52765205875039L191.02932306790353,87.93621163722128L191.75046056532858,57.702740052714944L191.9668018145561,43.881724471226335L192.47159806275369,112.98680237866938L192.97639431095124,74.11519605573267L193.7696455581188,126.80781796015799L193.91387305760384,115.5782428001985L194.27444180631636,106.94010806176811L194.6350105550289,105.21248111408204L194.77923805451394,119.03349669557065L194.92346555399894,150.13078175392002L195.356148052454,145.81171438470483L195.500375551939,163.0879838615656L195.57248930168154,150.99459522776306L195.71671680116654,150.99459522776306L195.78883055090904,139.76502006780356L196.2215130493641,157.04128954466432L196.50996804833412,159.63272996619344L196.6541955478191,171.72611859999597L197.30321929550172,135.44595269858837L197.51956054472922,131.12688532937318L197.73590179395674,112.12298890482634L197.8801292934418,110.39536195714027L198.81760804009437,98.30197332333773L198.8897217898369,118.16968322172761L199.32240428829192,117.30586974788457L199.53874553751945,88.80002511106431L200.18776928520202,79.2980768987909L200.47622428417205,93.1190924802795L200.54833803391458,91.39146553259343L201.34158928108215,107.80392153561115L201.9184992790222,134.58213922474533L202.27906802773478,132.85451227705926L202.35118177747728,134.58213922474533L202.7117505261898,110.39536195714027L203.07231927490233,109.53154848329723L203.28866052412985,82.75333079416305L203.6492292728424,69.79612868651748L204.08191177129746,74.11519605573267L204.22613927078245,95.71053290180862L204.44248052000998,86.2085846895352L204.80304926872253,98.30197332333773L204.94727676820756,114.71442932635546L205.01939051795006,129.3992583816871L205.09150426769256,114.71442932635546L205.23573176717758,115.5782428001985L205.6684142656326,137.17357964627445L206.0289830143452,152.72222217544913L206.17321051383018,126.80781796015799L207.0385755107403,135.44595269858837L207.1828030102253,130.26307185553014L207.54337175893784,144.08408743701875L207.9760542573929,132.85451227705926L208.3366230061054,119.89731016941369L208.48085050559044,120.76112364325672L208.62507800507544,99.16578679718077L208.69719175481796,94.84671942796558L208.91353300404546,102.62104069255292L208.98564675378802,102.62104069255292L209.9952392501831,138.03739312011749L210.21158049941064,157.90510301850736L211.14905924606322,89.66383858490735L211.36540049529077,112.98680237866938L211.6538554942608,116.44205627404153L211.7259692440033,125.08019101247191L211.94231049323082,164.81561080925167L212.08653799271582,172.589932073839L212.15865174245835,159.63272996619344L212.5913342409134,160.49654344003648L213.02401673936845,159.63272996619344L213.60092673730853,134.58213922474533L213.74515423679352,105.21248111408204L213.81726798653602,129.3992583816871L214.10572298550605,121.62493711709976L214.39417798447607,112.12298890482634L214.5384054839611,105.21248111408204L214.6826329834461,131.99069880321622L215.18742923164368,163.95179733540863L215.25954298138618,171.72611859999597L215.5479979803562,160.49654344003648L215.83645297932625,146.67552785854787L216.1970217280388,137.17357964627445L216.2691354777813,138.90120659396052L216.3412492275238,157.90510301850736L216.55759047675133,176.9089994430542L216.70181797623633,167.40705123078078L216.77393172597883,177.34090617997572L216.91815922546388,170.86230512615293L217.06238672494888,161.3603569138795L217.2787279741764,169.9984916523099L217.56718297314643,127.67163143400103L217.63929672288893,128.53544490784407L217.71141047263146,122.4887505909428L217.85563797211645,92.25527900643647L217.9998654716015,93.1190924802795L218.36043422031403,100.89341374486685L218.50466171979903,121.62493711709976L218.57677546954156,133.7183257509023L219.08157171773908,126.80781796015799L219.22579921722414,112.12298890482634L219.44214046645166,130.26307185553014L220.2353917136192,119.03349669557065L221.0286429607868,185.54713418148458L221.1007567105293,179.5004398645833L221.24498421001434,157.90510301850736L221.74978045821192,156.17747607082129L221.8940079576969,144.08408743701875L221.9661217074394,137.17357964627445L222.32669045615197,155.31366259697825L222.39880420589446,137.17357964627445L222.47091795563696,127.67163143400103L222.68725920486452,137.17357964627445L222.75937295460702,135.44595269858837L222.97571420383454,138.90120659396052L223.40839670228956,150.13078175392002L223.4805104520321,145.81171438470483L223.6247379515171,126.80781796015799L223.76896545100215,125.08019101247191L223.91319295048714,127.67163143400103L223.98530670022964,112.12298890482634L224.77855794739722,54.24748615734279L224.85067169713975,59.43036700040102L224.92278544688227,43.881724471226335L225.4996954448223,128.53544490784407L225.57180919456482,138.90120659396052L225.93237794327737,124.21637753862888L226.00449169301987,125.08019101247191L226.07660544276237,122.4887505909428L226.1487191925049,147.5393413323909L226.2929466919899,142.35646048933268L226.3650604417324,147.5393413323909L226.43717419147492,154.4498491231352L226.65351544070242,168.27086470462382L227.44676668787002,156.17747607082129L227.87944918632508,197.6405228152871L228.02367668581007,186.41094765532762L228.60058668375015,169.9984916523099L228.67270043349265,161.3603569138795L228.74481418323518,161.3603569138795L228.88904168272018,112.98680237866938L229.39383793091775,116.44205627404153L229.61017918014528,130.26307185553014L229.75440667963028,139.76502006780356L229.9707479288578,122.4887505909428L230.1149754283428,111.2591754309833L230.25920292782783,118.16968322172761L230.9082266755104,109.53154848329723L231.19668167448043,138.03739312011749L231.34090917396546,148.40315480623394L231.48513667345046,176.04518596921116L231.6293641729355,179.93234660150483L231.701477922678,171.72611859999597L231.98993292164803,204.1191238691099L232.13416042113303,201.9595901845023L232.49472916984558,173.45374554768205L232.56684291958808,187.70666786609218L233.6485491657257,183.8195072337985L233.7206629154682,157.04128954466432L233.7927766652107,143.2202739631757L233.93700416469576,129.3992583816871L234.00911791443826,110.39536195714027L234.5860279123783,87.07239816337824L234.6581416621208,81.88951732032001L234.7302554118633,70.65994216036052L235.09082416057586,100.02960027102381L235.1629379103184,109.53154848329723L235.45139290928842,122.4887505909428L235.6677341585159,106.07629458792508L235.88407540774344,98.30197332333773L236.0283029072285,101.75722721870989L236.1725304067135,99.16578679718077L236.31675790619852,101.75722721870989L236.38887165594102,105.21248111408204L236.46098540568352,117.30586974788457L236.82155415439604,110.39536195714027L236.89366790413857,112.98680237866938L237.75903290104867,160.49654344003648L237.90326040053367,147.5393413323909L238.40805664873125,154.4498491231352L238.84073914718627,142.35646048933268L238.9128528969288,142.35646048933268L239.70610414409637,125.94400448631495L239.7782178938389,129.3992583816871L240.42724164152145,64.61324784345925L240.57146914100645,87.07239816337824L240.7156966404915,91.39146553259343L240.93203788971903,79.2980768987909L241.07626538920402,62.88562089577317L241.14837913894652,69.79612868651748L241.36472038817405,62.88562089577317L241.65317538714407,89.66383858490735L241.72528913688657,62.88562089577317L242.08585788559915,114.71442932635546L242.23008538508415,98.30197332333773L242.37431288456918,47.33697836659849L242.44642663431168,49.06460531428456L242.7348816332817,119.03349669557065L242.87910913276673,120.76112364325672L243.09545038199425,90.52765205875039L243.6723603799343,94.84671942796558L243.8165878794193,97.4381598494947L243.88870162916183,92.25527900643647L244.03292912864686,122.4887505909428L244.39349787735938,81.02570384647697L244.5377253768444,93.1190924802795L244.6819528763294,81.02570384647697L244.82618037581443,50.79223226197064L245.11463537478448,88.80002511106431L245.4030903737545,83.61714426800609L245.475204123497,99.16578679718077L245.98000037169456,119.03349669557065L246.05211412143706,88.80002511106431L246.1963416209221,94.84671942796558L246.2684553706646,100.89341374486685L246.48479661989214,87.07239816337824L246.62902411937714,81.02570384647697L246.70113786911963,89.66383858490735L246.77325161886216,88.80002511106431L246.91747911834716,94.84671942796558L247.35016161680224,100.89341374486685L247.63861661577226,113.85061585251242L247.71073036551476,96.57434637565166L248.72032286190986,84.48095774184912L248.9366641111374,78.43426342494786L249.15300536036492,61.157993948087096L249.36934660959244,67.20468826498836L249.6578016085625,61.157993948087096L249.87414285779,98.30197332333773L249.94625660753252,82.75333079416305L250.01837035727502,62.88562089577317L250.45105285573004,81.02570384647697L250.81162160444262,57.702740052714944L250.88373535418512,80.16189037263393L250.95584910392762,87.07239816337824L251.24430410289764,97.4381598494947L251.38853160238267,112.98680237866938L251.46064535212517,99.16578679718077L251.89332785058022,139.76502006780356L252.10966909980775,169.9984916523099L252.25389659929277,142.35646048933268L252.32601034903527,164.81561080925167L252.47023784852027,135.44595269858837L252.54235159826277,123.35256406478584L252.6865790977478,142.35646048933268L252.90292034697532,125.08019101247191L253.11926159620285,148.40315480623394L253.6961715941429,132.85451227705926L253.76828534388542,123.35256406478584L254.12885409259798,172.589932073839L254.417309091568,224.8506472413428L262.42193531298636,189.00238807685673L262.7103903119564,170.86230512615293L262.8546178114414,151.8584087016061L263.21518656015394,130.26307185553014L263.359414059639,120.76112364325672L263.57575530886646,136.3097661724314L263.7199828083515,110.39536195714027L264.44112030577656,150.99459522776306L264.6574615550041,129.3992583816871L264.8738028042317,118.16968322172761L265.2343715529442,124.21637753862888L265.4507128021717,144.08408743701875L265.8833953006267,156.17747607082129L266.0997365498543,139.76502006780356L266.2439640493393,123.35256406478584L266.6045327980518,119.89731016941369L266.7487602975368,94.84671942796558L267.0372152965069,86.2085846895352L267.1093290462494,96.57434637565166L267.54201154470445,103.48485416639596L267.68623904418945,97.4381598494947L267.9746940431595,73.25138258188963L268.046807792902,59.43036700040102L268.19103529238697,81.88951732032001L268.26314904212956,71.52375563420355L268.40737654161455,87.07239816337824L268.55160404109955,97.4381598494947L268.9121727898121,91.39146553259343L269.2006277887821,71.52375563420355L269.4890827877522,76.70663647726178L269.7775377867222,89.66383858490735L269.9217652862072,59.43036700040102L270.3544477846622,98.30197332333773L270.57078903388975,116.44205627404153L271.21981278157233,128.53544490784407L271.3640402810573,133.7183257509023L271.5082677805424,129.3992583816871L271.7246090297699,146.67552785854787L271.79672277951244,145.81171438470483" fill="none"></path></g><g><path style="fill: none;" stroke="rgb(204, 51, 17)" stroke-width="2px" d="M41.10483735322952,-21.76809954084456L41.176951102972026,19.69494720362127L41.60963360142708,-28.678607331588864L41.970202350139616,-14.857591750100255L42.47499859833717,11.056812465190887L43.19613609576225,-26.950980383902788L43.48459109473228,-13.129964802414179L43.700932343959806,7.601558569818735L43.77304609370231,28.33308194205165L43.91727359318733,17.967320255935192L44.42206984138489,-35.58911512233317L44.78263859009743,17.967320255935192L45.07109358906746,57.702740052714944L45.143207338809965,4.146304674446583L45.287434838294985,-51.137757651507854L45.43166233778,9.329185517504811L45.86434483623505,26.605454994365573L45.936458585977554,19.69494720362127L46.44125483417511,31.7883358374238L46.585482333660124,7.601558569818735L46.65759608340264,57.702740052714944L46.873937332630156,45.60935141891241L47.37873358082771,36.97121668048203L47.59507483005524,54.24748615734279L47.73930232954026,-35.58911512233317L47.88352982902527,40.42647057585418L48.31621232748032,49.06460531428456L48.38832607722283,11.056812465190887L48.460439826965334,16.239693308249116L48.82100857567787,24.877828046679497L49.32580482387543,2.4186777267605066L49.397918573617936,36.97121668048203L49.47003232336045,-37.316742070019245L49.758487322330474,28.33308194205165L49.83060107207298,23.15020109899342L49.902714821815486,-18.312845645472407L50.407511070013044,4.146304674446583L50.62385231924057,-20.040472593158484L50.695966068983076,-7.94708395935595L50.76807981872558,30.060708889737725L50.84019356846809,9.329185517504811L50.98442106795311,28.33308194205165L51.27287606692314,19.69494720362127L51.41710356640815,54.24748615734279L51.56133106589317,21.422574151307344L51.8497860648632,59.43036700040102L51.92189981460571,2.4186777267605066L51.99401356434822,26.605454994365573L52.21035481357574,35.243589732795954L52.570923562288286,75.84282300341874L53.29206105971336,42.15409752354026L53.6526298084259,26.605454994365573L53.72474355816841,36.97121668048203L53.79685730791092,30.060708889737725L54.662222304821015,-32.13386122696102L54.73433605456352,17.967320255935192L54.806449804306034,26.605454994365573L55.599701051473616,30.060708889737725L55.81604230070114,54.24748615734279L55.96026980018616,50.79223226197064L56.10449729967117,85.34477121569216L56.392952298641205,40.42647057585418L56.60929354786873,43.881724471226335L56.82563479709626,40.42647057585418L56.96986229658127,62.88562089577317L57.330431045293814,19.69494720362127L57.474658544778826,-2.764203116297722L57.54677229452133,52.519859209656715L58.123682292461396,40.42647057585418L58.267909791946416,24.877828046679497L58.55636479091645,17.967320255935192L58.84481978988647,49.06460531428456L58.989047289371484,47.33697836659849L59.061161039114,17.967320255935192L59.277502288341516,42.15409752354026L60.35920853447914,76.70663647726178L60.43132228422164,35.243589732795954L60.79189103293419,38.698843628168106L60.9361185324192,33.51596278510988L61.008232282161714,66.34087479114532L61.44091478061676,33.51596278510988L61.58514228010178,40.42647057585418L61.87359727907181,74.9790095295757L62.16205227804184,54.24748615734279L62.23416602778435,49.06460531428456L62.30627977752685,28.33308194205165L62.37839352726936,35.243589732795954L62.45050727701187,45.60935141891241L62.52262102675438,59.43036700040102L63.31587227392197,64.61324784345925L63.89278227186203,23.15020109899342L64.18123727083206,45.60935141891241L64.32546477031708,43.881724471226335L64.4696922698021,19.69494720362127L64.68603351902962,70.65994216036052L65.04660226774216,19.69494720362127L65.19082976722717,67.20468826498836L65.55139851593971,45.60935141891241L65.91196726465226,75.84282300341874L65.98408101439476,54.24748615734279L66.41676351284981,50.79223226197064L66.48887726259233,62.88562089577317L66.77733226156235,43.881724471226335L67.06578726053239,61.157993948087096L67.42635600924493,55.97511310502887L67.49846975898743,62.88562089577317L67.57058350872994,75.84282300341874L67.71481100821495,68.0685017388314L68.00326600718498,16.239693308249116L68.07537975692749,59.43036700040102L68.2196072564125,40.42647057585418L68.50806225538254,69.79612868651748L68.65228975486755,45.60935141891241L68.94074475383758,55.97511310502887L69.22919975280762,80.16189037263393L69.30131350255012,55.97511310502887L69.58976850152015,82.75333079416305L69.66188225126267,42.15409752354026L69.80610975074768,50.79223226197064L69.95033725023269,62.88562089577317L70.23879224920273,81.02570384647697L70.31090599894523,50.79223226197064L70.67147474765777,45.60935141891241L70.74358849740028,75.84282300341874L71.17627099585533,75.84282300341874L71.24838474559783,55.97511310502887L71.32049849534035,72.38756910804659L71.68106724405288,68.93231521267444L71.96952224302292,73.25138258188963L72.7627734901905,45.60935141891241L72.83488723993301,64.61324784345925L72.90700098967551,64.61324784345925L72.97911473941804,67.20468826498836L73.05122848916054,31.7883358374238L73.12334223890305,72.38756910804659L73.33968348813056,86.2085846895352L73.41179723787307,62.88562089577317L73.48391098761557,43.881724471226335L74.49350348401069,64.61324784345925L74.5656172337532,49.06460531428456L74.70984473323823,33.51596278510988L74.78195848298073,52.519859209656715L74.85407223272324,61.157993948087096L74.99829973220825,77.57044995110482L75.14252723169326,33.51596278510988L75.28675473117829,55.97511310502887L75.4309822306633,82.75333079416305L75.5030959804058,40.42647057585418L75.71943722963333,81.02570384647697L75.86366472911836,76.70663647726178L76.08000597834587,61.157993948087096L76.15211972808838,68.93231521267444L76.58480222654343,68.0685017388314L76.72902972602844,50.79223226197064L77.01748472499848,57.702740052714944L77.233825974226,92.25527900643647L77.378053473711,59.43036700040102L77.59439472293855,54.24748615734279L78.17130472087861,69.79612868651748L78.24341847062111,30.060708889737725L78.45975971984863,50.79223226197064L78.60398721933366,57.702740052714944L78.67610096907616,50.79223226197064L78.89244221830369,36.97121668048203L79.0366697177887,62.88562089577317L79.18089721727372,72.38756910804659L79.25301096701622,55.97511310502887L79.46935221624375,74.9790095295757L79.54146596598625,55.97511310502887L79.9020347146988,79.2980768987909L80.26260346341132,5.873931622132659L80.33471721315385,67.20468826498836L80.47894471263886,40.42647057585418L80.91162721109391,38.698843628168106L80.98374096083641,90.52765205875039L81.20008221006393,69.79612868651748L81.34430970954894,61.157993948087096L81.41642345929147,66.34087479114532L81.70487845826149,80.16189037263393L81.99333345723153,81.88951732032001L82.20967470645904,85.34477121569216L82.28178845620155,82.75333079416305L82.35390220594405,84.48095774184912L82.42601595568657,61.157993948087096L82.49812970542906,36.97121668048203L82.85869845414162,54.24748615734279L83.00292595362663,35.243589732795954L83.07503970336913,59.43036700040102L83.21926720285416,52.519859209656715L83.29138095259667,52.519859209656715L83.50772220182418,36.97121668048203L83.65194970130919,52.519859209656715L84.15674594950676,49.06460531428456L84.37308719873428,52.519859209656715L84.73365594744682,42.15409752354026L84.80576969718932,69.79612868651748L85.09422469615936,85.34477121569216L85.3826796951294,83.61714426800609L85.59902094435692,83.61714426800609L85.95958969306946,47.33697836659849L86.10381719255447,81.88951732032001L86.24804469203949,71.52375563420355L86.320158441782,47.33697836659849L86.46438594126703,30.060708889737725L86.68072719049454,68.0685017388314L86.89706843972206,87.07239816337824L87.2576371884346,78.43426342494786L87.61820593714715,83.61714426800609L87.76243343663216,95.71053290180862L87.97877468585968,19.69494720362127L88.05088843560219,55.97511310502887L88.19511593508722,75.84282300341874L88.33934343457223,80.16189037263393L88.41145718431473,68.93231521267444L88.55568468379974,55.97511310502887L88.62779843354225,87.93621163722128L88.77202593302728,64.61324784345925L88.84413968276978,49.06460531428456L88.91625343251229,93.98290595412254L89.27682218122482,59.43036700040102L89.56527718019485,69.79612868651748L89.70950467967987,61.157993948087096L90.57486967658997,40.42647057585418L90.71909717607498,36.97121668048203L91.15177967453003,47.33697836659849L91.22389342427253,95.71053290180862L91.51234842324256,94.84671942796558L91.7286896724701,16.239693308249116L91.94503092169761,24.877828046679497L92.01714467144012,79.2980768987909L92.16137217092515,24.877828046679497L92.23348592066765,50.79223226197064L92.30559967041016,66.34087479114532L92.44982716989517,45.60935141891241L92.88250966835022,54.24748615734279L94.03632966423035,59.43036700040102L94.10844341397285,36.97121668048203L94.18055716371536,59.43036700040102L94.25267091345786,83.61714426800609L94.4690121626854,66.34087479114532L95.04592216062547,71.52375563420355L95.11803591036796,43.881724471226335L95.76705965805054,68.93231521267444L96.05551465702058,57.702740052714944L96.12762840676308,61.157993948087096L96.27185590624809,55.97511310502887L96.3439696559906,40.42647057585418L96.56031090521812,52.519859209656715L96.63242465496064,36.97121668048203L96.84876590418816,82.75333079416305L96.99299340367317,72.38756910804659L97.42567590212822,52.519859209656715L97.85835840058327,59.43036700040102L98.0746996498108,67.20468826498836L98.21892714929581,40.42647057585418L98.43526839852333,54.24748615734279L98.50738214826585,66.34087479114532L98.79583714723587,59.43036700040102L98.86795089697837,57.702740052714944L99.80542964363097,14.51206636056304L99.94965714311599,28.33308194205165L100.23811214208602,76.70663647726178L100.38233964157104,45.60935141891241L100.59868089079858,62.88562089577317L100.74290839028359,50.79223226197064L100.81502214002609,66.34087479114532L101.03136338925361,77.57044995110482L101.10347713899611,40.42647057585418L101.46404588770866,66.34087479114532L101.53615963745116,30.060708889737725L101.68038713693618,35.243589732795954L101.7525008866787,49.06460531428456L102.25729713487624,81.88951732032001L102.32941088461877,64.61324784345925L102.47363838410378,64.61324784345925L102.97843463230133,74.11519605573267L103.12266213178634,43.881724471226335L103.19477588152886,62.88562089577317L103.26688963127135,-20.040472593158484L103.77168587946892,81.02570384647697L103.98802712869644,78.43426342494786L104.20436837792397,55.97511310502887L104.49282337689401,92.25527900643647L104.70916462612152,62.88562089577317L104.92550587534905,71.52375563420355L105.28607462406158,57.702740052714944L105.50241587328911,64.61324784345925L105.64664337277414,83.61714426800609L105.79087087225915,50.79223226197064L105.86298462200165,49.06460531428456L106.58412211942672,70.65994216036052L106.65623586916924,59.43036700040102L106.87257711839676,33.51596278510988L107.16103211736679,75.84282300341874L107.44948711633683,-18.312845645472407L107.59371461582184,55.97511310502887L107.73794211530685,69.79612868651748L107.88216961479186,80.16189037263393L108.0985108640194,52.519859209656715L108.31485211324691,55.97511310502887L108.38696586298941,64.61324784345925L108.45907961273194,55.97511310502887L108.60330711221695,93.1190924802795L108.96387586092948,57.702740052714944L109.1081033604145,86.2085846895352L109.25233085989952,94.84671942796558L109.75712710809708,81.88951732032001L110.0455821070671,30.060708889737725L110.18980960655213,82.75333079416305L110.69460585474967,47.33697836659849L110.7667196044922,74.11519605573267L110.8388333542347,81.88951732032001L110.91094710397721,68.93231521267444L110.9830608537197,68.0685017388314L111.27151585268973,28.33308194205165L111.48785710191727,33.51596278510988L112.20899459934235,43.881724471226335L112.35322209882736,43.881724471226335L112.49744959831239,54.24748615734279L112.6416770977974,17.967320255935192L112.85801834702491,16.239693308249116L113.00224584650994,76.70663647726178L113.14647334599495,47.33697836659849L113.21858709573746,33.51596278510988L113.29070084547996,81.02570384647697L113.36281459522247,68.0685017388314L113.43492834496497,85.34477121569216L113.72338334393501,76.70663647726178L113.93972459316254,71.52375563420355L114.30029334187508,67.20468826498836L114.37240709161759,52.519859209656715L114.44452084136009,50.79223226197064L114.73297584033013,59.43036700040102L115.23777208852769,52.519859209656715L115.52622708749772,61.157993948087096L115.59834083724022,50.79223226197064L115.67045458698273,28.33308194205165L115.88679583621025,74.11519605573267L116.03102333569527,74.11519605573267L116.17525083518028,36.97121668048203L116.24736458492279,59.43036700040102L116.39159208440782,81.02570384647697L116.75216083312034,68.93231521267444L116.89638833260535,90.52765205875039L116.96850208234788,30.060708889737725L117.1848433315754,55.97511310502887L117.25695708131789,72.38756910804659L117.4011845808029,57.702740052714944L117.47329833054543,69.79612868651748L117.68963957977294,38.698843628168106L117.83386707925796,69.79612868651748L118.19443582797051,74.9790095295757L118.69923207616806,69.79612868651748L118.98768707513808,76.70663647726178L119.0598008248806,67.20468826498836L119.1319145746231,47.33697836659849L119.85305207204819,72.38756910804659L119.9972795715332,40.42647057585418L120.21362082076072,35.243589732795954L120.71841706895827,52.519859209656715L120.86264456844329,72.38756910804659L120.93475831818581,57.702740052714944L121.00687206792831,26.605454994365573L121.29532706689834,59.43036700040102L121.43955456638336,54.24748615734279L121.58378206586838,82.75333079416305L121.8001233150959,62.88562089577317L122.08857831406594,64.61324784345925L122.16069206380844,57.702740052714944L122.37703331303597,55.97511310502887L122.95394331097603,61.157993948087096L123.02605706071853,74.9790095295757L123.09817081046106,64.61324784345925L123.60296705865859,66.34087479114532L123.89142205762863,35.243589732795954L124.25199080634118,71.52375563420355L124.3962183058262,66.34087479114532L124.68467330479622,47.33697836659849L124.90101455402375,19.69494720362127L125.33369705247878,40.42647057585418L125.76637955093383,35.243589732795954L125.91060705041885,50.79223226197064L126.12694829964639,68.0685017388314L126.19906204938889,78.43426342494786L126.27117579913138,61.157993948087096L126.3432895488739,16.239693308249116L126.48751704835892,50.79223226197064L126.63174454784394,74.9790095295757L126.70385829758644,64.61324784345925L126.92019954681396,69.79612868651748L126.99231329655646,72.38756910804659L127.42499579501151,73.25138258188963L127.71345079398155,97.4381598494947L128.0740195426941,77.57044995110482L128.1461332924366,55.97511310502887L128.21824704217912,55.97511310502887L128.50670204114914,82.75333079416305L128.72304329037667,24.877828046679497L129.08361203908922,84.48095774184912L129.29995328831671,62.88562089577317L129.66052203702927,85.34477121569216L129.73263578677177,76.70663647726178L129.9489770359993,70.65994216036052L130.23743203496934,68.0685017388314L130.52588703393937,70.65994216036052L130.8864557826519,77.57044995110482L131.24702453136445,72.38756910804659L131.39125203084947,61.157993948087096L131.60759328007697,55.97511310502887L131.6797070298195,61.157993948087096L131.82393452930452,70.65994216036052L132.32873077750205,79.2980768987909L133.04986827492715,70.65994216036052L133.26620952415468,67.20468826498836L133.69889202260973,66.34087479114532L134.13157452106478,12.784439412876964L134.4200295200348,57.702740052714944L134.4921432697773,69.79612868651748L134.5642570195198,59.43036700040102L134.6363707692623,55.97511310502887L134.70848451900483,62.88562089577317L135.21328076720238,47.33697836659849L135.28539451694488,49.06460531428456L135.5738495159149,62.88562089577317L136.00653201436995,52.519859209656715L136.29498701333998,52.519859209656715L136.51132826256753,71.52375563420355L136.79978326153756,61.157993948087096L138.2420582563877,62.88562089577317L138.53051325535773,23.15020109899342L139.25165075278284,72.38756910804659L139.61221950149536,81.02570384647697L139.7564470009804,57.702740052714944L139.8285607507229,50.79223226197064L139.90067450046539,81.02570384647697L139.9727882502079,50.79223226197064L140.54969824814796,71.52375563420355L140.693925747633,79.2980768987909L140.982380746603,72.38756910804659L141.12660824608804,24.877828046679497L141.19872199583054,64.61324784345925L141.34294949531554,42.15409752354026L141.41506324505806,42.15409752354026L142.28042824196817,68.93231521267444L142.35254199171067,86.2085846895352L142.49676949119566,55.97511310502887L143.00156573939324,64.61324784345925L143.29002073836327,59.43036700040102L143.5063619875908,61.157993948087096L143.79481698656082,21.422574151307344L144.08327198553084,69.79612868651748L144.15538573527337,72.38756910804659L144.37172698450087,12.784439412876964L144.87652323269845,40.42647057585418L144.94863698244095,38.698843628168106L145.02075073218347,54.24748615734279L145.16497823166847,68.93231521267444L145.381319480896,67.20468826498836L146.2466844778061,54.24748615734279L146.67936697626112,50.79223226197064L146.89570822548865,47.33697836659849L146.96782197523115,70.65994216036052L147.1841632244587,45.60935141891241L147.68895947265625,82.75333079416305L147.90530072188378,69.79612868651748L147.97741447162628,19.69494720362127L148.69855196905135,64.61324784345925L148.91489321827888,59.43036700040102L148.98700696802138,54.24748615734279L149.1312344675064,69.79612868651748L149.34757571673396,42.15409752354026L149.41968946647646,43.881724471226335L149.49180321621895,38.698843628168106L149.70814446544648,47.33697836659849L149.9965994644165,40.42647057585418L150.35716821312903,23.15020109899342L151.07830571055413,61.157993948087096L151.15041946029663,31.7883358374238L151.22253321003913,54.24748615734279L151.51098820900916,50.79223226197064L151.58310195875166,-13.129964802414179L151.6552157084942,49.06460531428456L152.23212570643426,36.97121668048203L153.38594570231436,38.698843628168106L153.67440070128438,54.24748615734279L153.96285570025444,73.25138258188963L154.10708319973946,57.702740052714944L154.323424448967,81.02570384647697L154.3955381987095,19.69494720362127L154.756106947422,66.34087479114532L154.8282206971645,47.33697836659849L155.11667569613456,59.43036700040102L155.3330169453621,47.33697836659849L155.47724444484712,35.243589732795954L155.90992694330214,35.243589732795954L156.1983819422722,30.060708889737725L156.48683694124222,23.15020109899342L156.77529194021224,47.33697836659849L156.99163318943977,-39.04436901770532L157.13586068892477,49.06460531428456L157.56854318737984,55.97511310502887L157.64065693712234,45.60935141891241L157.71277068686484,36.97121668048203L157.78488443660737,30.060708889737725L158.1454531853199,57.702740052714944L158.2175669350624,38.698843628168106L158.2896806848049,35.243589732795954L158.79447693300247,55.97511310502887L158.9387044324875,49.06460531428456L159.155045681715,40.42647057585418L159.29927318120002,30.060708889737725L159.37138693094252,17.967320255935192L159.44350068068502,50.79223226197064L159.51561443042758,-4.491830063983798L159.9482969288826,54.24748615734279L160.23675192785262,38.698843628168106L160.30886567759512,59.43036700040102L160.38097942733765,57.702740052714944L160.45309317708015,45.60935141891241L160.8136619257927,73.25138258188963L161.39057192373275,35.243589732795954L161.46268567347525,71.52375563420355L161.7511406724453,31.7883358374238L161.89536817193033,30.060708889737725L162.25593692064285,52.519859209656715L162.47227816987038,42.15409752354026L162.54439191961288,19.69494720362127L163.33764316678048,57.702740052714944L164.05878066420556,24.877828046679497L164.20300816369058,33.51596278510988L164.41934941291808,62.88562089577317L164.7078044118881,36.97121668048203L164.77991816163063,17.967320255935192L164.85203191137313,36.97121668048203L165.0683731606007,38.698843628168106L165.28471440982818,69.79612868651748L165.5731694087982,17.967320255935192L165.86162440776823,14.51206636056304L166.00585190725326,54.24748615734279L166.4385344057083,42.15409752354026L166.58276190519334,68.0685017388314L167.23178565287589,45.60935141891241L167.52024065184594,68.93231521267444L167.73658190107346,33.51596278510988L167.80869565081596,21.422574151307344L167.952923150301,36.97121668048203L168.0250369000435,61.157993948087096L168.1692643995285,19.69494720362127L168.4577193984985,12.784439412876964L168.60194689798357,21.422574151307344L169.10674314618112,75.84282300341874L169.25097064566611,2.4186777267605066L169.3230843954086,52.519859209656715L169.53942564463614,68.0685017388314L170.18844939231872,62.88562089577317L170.54901814103127,54.24748615734279L170.62113189077377,33.51596278510988L170.69324564051627,79.2980768987909L171.05381438922882,68.93231521267444L171.19804188871385,35.243589732795954L171.63072438716887,40.42647057585418L171.84706563639642,5.873931622132659L171.91917938613892,69.79612868651748L172.06340688562395,50.79223226197064L172.20763438510895,54.24748615734279L172.35186188459397,38.698843628168106L172.7124306333065,36.97121668048203L173.00088563227655,14.51206636056304L173.21722688150408,50.79223226197064L173.6499093799591,9.329185517504811L173.7220231297016,49.06460531428456L173.79413687944412,57.702740052714944L174.01047812867162,47.33697836659849L174.3710468773842,61.157993948087096L174.80372937583923,64.61324784345925L174.87584312558172,89.66383858490735L175.59698062300683,16.239693308249116L175.66909437274933,55.97511310502887L175.95754937171935,38.698843628168106L176.02966312146185,5.873931622132659L176.10177687120438,31.7883358374238L176.31811812043188,26.605454994365573L176.46234561991693,35.243589732795954L176.67868686914446,0.6910507790744305L176.89502811837195,52.519859209656715L177.11136936759948,79.2980768987909L177.3998243665695,52.519859209656715L177.471938116312,81.88951732032001L177.54405186605456,73.25138258188963L177.61616561579706,57.702740052714944L177.68827936553956,31.7883358374238L177.83250686502458,64.61324784345925L177.90462061476708,78.43426342494786L177.97673436450958,43.881724471226335L178.62575811219213,12.784439412876964L178.76998561167719,54.24748615734279L178.91421311116218,61.157993948087096L179.34689560961723,54.24748615734279L179.41900935935973,38.698843628168106L179.63535060858726,61.157993948087096L181.51030810189246,55.97511310502887L181.7987631008625,42.15409752354026L181.870876850605,45.60935141891241L182.15933184957504,19.69494720362127L182.30355934906007,42.15409752354026L182.5199005982876,55.97511310502887L182.80835559725762,42.15409752354026L182.88046934700012,47.33697836659849L183.16892434597017,64.61324784345925L183.3852655951977,55.97511310502887L183.67372059416772,42.15409752354026L184.17851684236524,57.702740052714944L184.2506305921078,23.15020109899342L184.3227443418503,43.881724471226335L185.11599558901787,36.97121668048203L185.18810933876037,45.60935141891241L185.33233683824537,-2.764203116297722L185.62079183721542,49.06460531428456L185.98136058592797,14.51206636056304L186.4861568341255,36.97121668048203L186.55827058386805,31.7883358374238L186.70249808335305,55.97511310502887L186.84672558283808,42.15409752354026L187.1351805818081,33.51596278510988L187.2794080812931,47.33697836659849L187.3515218310356,49.06460531428456L187.49574933052062,42.15409752354026L187.71209057974818,31.7883358374238L187.85631807923318,62.88562089577317L188.1447730782032,72.38756910804659L188.2168868279457,57.702740052714944L188.50534182691572,16.239693308249116L188.57745557665825,31.7883358374238L188.8659105756283,59.43036700040102L188.9380243253708,57.702740052714944L189.15436557459833,47.33697836659849L189.22647932434083,17.967320255935192L189.44282057356833,30.060708889737725L190.0197305715084,59.43036700040102L190.09184432125093,17.967320255935192L190.30818557047843,61.157993948087096L190.59664056944845,54.24748615734279L191.02932306790353,23.15020109899342L191.75046056532858,33.51596278510988L191.9668018145561,33.51596278510988L192.47159806275369,75.84282300341874L192.97639431095124,36.97121668048203L193.7696455581188,49.06460531428456L193.91387305760384,31.7883358374238L194.27444180631636,30.060708889737725L194.6350105550289,62.88562089577317L194.77923805451394,68.0685017388314L194.92346555399894,59.43036700040102L195.356148052454,49.06460531428456L195.500375551939,52.519859209656715L195.57248930168154,74.11519605573267L195.71671680116654,45.60935141891241L195.78883055090904,43.881724471226335L196.2215130493641,59.43036700040102L196.50996804833412,14.51206636056304L196.6541955478191,82.75333079416305L197.30321929550172,72.38756910804659L197.51956054472922,14.51206636056304L197.73590179395674,28.33308194205165L197.8801292934418,57.702740052714944L198.81760804009437,14.51206636056304L198.8897217898369,50.79223226197064L199.32240428829192,57.702740052714944L199.53874553751945,33.51596278510988L200.18776928520202,42.15409752354026L200.47622428417205,57.702740052714944L200.54833803391458,59.43036700040102L201.34158928108215,35.243589732795954L201.9184992790222,28.33308194205165L202.27906802773478,43.881724471226335L202.35118177747728,-7.94708395935595L202.7117505261898,61.157993948087096L203.07231927490233,49.06460531428456L203.28866052412985,30.060708889737725L203.6492292728424,54.24748615734279L204.08191177129746,12.784439412876964L204.22613927078245,33.51596278510988L204.44248052000998,16.239693308249116L204.80304926872253,73.25138258188963L204.94727676820756,17.967320255935192L205.01939051795006,38.698843628168106L205.09150426769256,45.60935141891241L205.23573176717758,26.605454994365573L205.6684142656326,59.43036700040102L206.0289830143452,40.42647057585418L206.17321051383018,43.881724471226335L207.0385755107403,28.33308194205165L207.1828030102253,28.33308194205165L207.54337175893784,47.33697836659849L207.9760542573929,47.33697836659849L208.3366230061054,64.61324784345925L208.48085050559044,19.69494720362127L208.62507800507544,14.51206636056304L208.69719175481796,64.61324784345925L208.91353300404546,64.61324784345925L208.98564675378802,31.7883358374238L209.9952392501831,68.93231521267444L210.21158049941064,26.605454994365573L211.14905924606322,40.42647057585418L211.36540049529077,61.157993948087096L211.6538554942608,30.060708889737725L211.7259692440033,40.42647057585418L211.94231049323082,61.157993948087096L212.08653799271582,50.79223226197064L212.15865174245835,61.157993948087096L212.5913342409134,-16.58521869778633L213.02401673936845,66.34087479114532L213.60092673730853,9.329185517504811L213.74515423679352,40.42647057585418L213.81726798653602,-2.764203116297722L214.10572298550605,50.79223226197064L214.39417798447607,55.97511310502887L214.5384054839611,33.51596278510988L214.6826329834461,59.43036700040102L215.18742923164368,23.15020109899342L215.25954298138618,12.784439412876964L215.5479979803562,55.97511310502887L215.83645297932625,59.43036700040102L216.1970217280388,38.698843628168106L216.2691354777813,35.243589732795954L216.3412492275238,23.15020109899342L216.55759047675133,59.43036700040102L216.70181797623633,42.15409752354026L216.77393172597883,55.97511310502887L216.91815922546388,42.15409752354026L217.06238672494888,55.97511310502887L217.2787279741764,30.060708889737725L217.56718297314643,47.33697836659849L217.63929672288893,61.157993948087096L217.71141047263146,2.4186777267605066L217.85563797211645,43.881724471226335L217.9998654716015,62.88562089577317L218.36043422031403,0.6910507790744305L218.50466171979903,31.7883358374238L218.57677546954156,24.877828046679497L219.08157171773908,71.52375563420355L219.22579921722414,57.702740052714944L219.44214046645166,26.605454994365573L220.2353917136192,49.06460531428456L221.0286429607868,42.15409752354026L221.1007567105293,45.60935141891241L221.24498421001434,38.698843628168106L221.74978045821192,31.7883358374238L221.8940079576969,35.243589732795954L221.9661217074394,31.7883358374238L222.32669045615197,47.33697836659849L222.39880420589446,36.97121668048203L222.47091795563696,49.06460531428456L222.68725920486452,61.157993948087096L222.75937295460702,16.239693308249116L222.97571420383454,24.877828046679497L223.40839670228956,-45.954876808449626L223.4805104520321,28.33308194205165L223.6247379515171,9.329185517504811L223.76896545100215,45.60935141891241L223.91319295048714,57.702740052714944L223.98530670022964,47.33697836659849L224.77855794739722,47.33697836659849L224.85067169713975,55.97511310502887L224.92278544688227,47.33697836659849L225.4996954448223,30.060708889737725L225.57180919456482,50.79223226197064L225.93237794327737,62.88562089577317L226.00449169301987,36.97121668048203L226.07660544276237,59.43036700040102L226.1487191925049,54.24748615734279L226.2929466919899,12.784439412876964L226.3650604417324,49.06460531428456L226.43717419147492,74.9790095295757L226.65351544070242,42.15409752354026L227.44676668787002,47.33697836659849L227.87944918632508,47.33697836659849L228.02367668581007,57.702740052714944L228.60058668375015,40.42647057585418L228.67270043349265,45.60935141891241L228.74481418323518,17.967320255935192L228.88904168272018,16.239693308249116L229.39383793091775,-2.764203116297722L229.61017918014528,36.97121668048203L229.75440667963028,43.881724471226335L229.9707479288578,47.33697836659849L230.1149754283428,42.15409752354026L230.25920292782783,17.967320255935192L230.9082266755104,54.24748615734279L231.19668167448043,52.519859209656715L231.34090917396546,40.42647057585418L231.48513667345046,33.51596278510988L231.6293641729355,66.34087479114532L231.701477922678,17.967320255935192L231.98993292164803,28.33308194205165L232.06204667139053,43.881724471226335L232.13416042113303,28.33308194205165L232.49472916984558,77.57044995110482L232.56684291958808,42.15409752354026L232.71107041907308,-2.764203116297722L232.85529791855814,21.422574151307344L232.92741166830064,28.33308194205165L233.21586666727066,52.519859209656715L233.28798041701316,42.15409752354026L233.57643541598318,45.60935141891241L233.6485491657257,36.97121668048203L233.7206629154682,50.79223226197064L233.7927766652107,42.15409752354026L233.93700416469576,49.06460531428456L234.00911791443826,64.61324784345925L234.5860279123783,40.42647057585418L234.6581416621208,43.881724471226335L234.7302554118633,36.97121668048203L235.09082416057586,40.42647057585418L235.1629379103184,30.060708889737725L235.45139290928842,49.06460531428456L235.6677341585159,0.6910507790744305L235.88407540774344,47.33697836659849L236.0283029072285,54.24748615734279L236.1725304067135,43.881724471226335L236.31675790619852,47.33697836659849L236.38887165594102,43.881724471226335L236.46098540568352,50.79223226197064L236.82155415439604,55.97511310502887L236.89366790413857,57.702740052714944L237.75903290104867,19.69494720362127L237.90326040053367,38.698843628168106L238.40805664873125,31.7883358374238L238.84073914718627,55.97511310502887L238.9128528969288,31.7883358374238L239.70610414409637,49.06460531428456L239.7782178938389,45.60935141891241L240.42724164152145,47.33697836659849L240.57146914100645,57.702740052714944L240.7156966404915,72.38756910804659L240.93203788971903,28.33308194205165L241.07626538920402,33.51596278510988L241.14837913894652,-14.857591750100255L241.36472038817405,45.60935141891241L241.65317538714407,-1.0365761686116457L241.72528913688657,21.422574151307344L242.08585788559915,43.881724471226335L242.23008538508415,54.24748615734279L242.37431288456918,12.784439412876964L242.44642663431168,62.88562089577317L242.7348816332817,36.97121668048203L242.87910913276673,47.33697836659849L243.09545038199425,30.060708889737725L243.6723603799343,45.60935141891241L243.8165878794193,50.79223226197064L243.88870162916183,50.79223226197064L244.03292912864686,35.243589732795954L244.39349787735938,40.42647057585418L244.5377253768444,64.61324784345925L244.6819528763294,28.33308194205165L244.82618037581443,33.51596278510988L245.11463537478448,50.79223226197064L245.4030903737545,26.605454994365573L245.475204123497,38.698843628168106L245.98000037169456,43.881724471226335L246.05211412143706,43.881724471226335L246.1963416209221,59.43036700040102L246.2684553706646,35.243589732795954L246.48479661989214,74.11519605573267L246.62902411937714,45.60935141891241L246.70113786911963,54.24748615734279L246.77325161886216,4.146304674446583L246.91747911834716,38.698843628168106L247.35016161680224,45.60935141891241L247.63861661577226,28.33308194205165L247.71073036551476,50.79223226197064L248.72032286190986,54.24748615734279L248.9366641111374,40.42647057585418L249.15300536036492,17.967320255935192L249.36934660959244,4.146304674446583L249.6578016085625,36.97121668048203L249.87414285779,-7.94708395935595L249.94625660753252,45.60935141891241L250.01837035727502,43.881724471226335L250.45105285573004,24.877828046679497L250.81162160444262,50.79223226197064L250.88373535418512,40.42647057585418L250.95584910392762,36.97121668048203L251.24430410289764,50.79223226197064L251.38853160238267,9.329185517504811L251.46064535212517,57.702740052714944L251.89332785058022,36.97121668048203L252.10966909980775,45.60935141891241L252.25389659929277,74.11519605573267L252.32601034903527,30.060708889737725L252.47023784852027,49.06460531428456L252.54235159826277,68.0685017388314L252.6865790977478,54.24748615734279L252.90292034697532,57.702740052714944L253.11926159620285,62.88562089577317L253.6961715941429,45.60935141891241L253.76828534388542,17.967320255935192L254.12885409259798,21.422574151307344L254.417309091568,50.79223226197064L254.4894228413105,42.15409752354026L254.84999159002302,-4.491830063983798L255.71535658693313,50.79223226197064L255.78747033667565,59.43036700040102L255.85958408641815,64.61324784345925L255.93169783616065,21.422574151307344L256.0038115859032,35.243589732795954L256.3643803346157,14.51206636056304L256.65283533358576,-16.58521869778633L257.1576315817833,24.877828046679497L257.30185908126833,-9.674710907042027L257.3739728310108,55.97511310502887L257.7345415797233,45.60935141891241L257.95088282895085,52.519859209656715L258.31145157766343,19.69494720362127L258.38356532740596,36.97121668048203L258.45567907714843,71.52375563420355L258.52779282689096,36.97121668048203L258.8883615756035,67.20468826498836L259.1768165745735,66.34087479114532L259.32104407405853,30.060708889737725L259.53738532328606,74.11519605573267L259.8258403222561,31.7883358374238L259.8979540719986,68.93231521267444L259.9700678217411,54.24748615734279L260.1142953212261,62.88562089577317L260.40275032019616,38.698843628168106L260.4748640699387,54.24748615734279L260.6190915694237,7.601558569818735L260.6912053191662,62.88562089577317L260.9796603181362,59.43036700040102L261.05177406787874,66.34087479114532L261.1238878176212,12.784439412876964L261.4844565663338,59.43036700040102L261.55657031607626,30.060708889737725L261.6286840658188,-6.219457011669874L262.34982156324384,55.97511310502887L262.42193531298636,38.698843628168106L262.7103903119564,24.877828046679497L262.8546178114414,16.239693308249116L263.21518656015394,17.967320255935192L263.359414059639,62.88562089577317L263.57575530886646,69.79612868651748L263.7199828083515,55.97511310502887L264.44112030577656,49.06460531428456L264.6574615550041,54.24748615734279L264.8738028042317,14.51206636056304L265.2343715529442,45.60935141891241L265.4507128021717,12.784439412876964L265.8833953006267,38.698843628168106L266.0997365498543,33.51596278510988L266.2439640493393,24.877828046679497L266.6045327980518,38.698843628168106L266.7487602975368,45.60935141891241L267.0372152965069,26.605454994365573L267.1093290462494,21.422574151307344L267.54201154470445,31.7883358374238L267.68623904418945,61.157993948087096L267.9746940431595,33.51596278510988L268.046807792902,30.060708889737725L268.19103529238697,36.97121668048203L268.26314904212956,52.519859209656715L268.40737654161455,50.79223226197064L268.55160404109955,-25.223353436216712L268.9121727898121,68.93231521267444L269.2006277887821,40.42647057585418L269.4890827877522,42.15409752354026L269.7775377867222,61.157993948087096L269.9217652862072,36.97121668048203L270.3544477846622,64.61324784345925L270.57078903388975,42.15409752354026L271.21981278157233,52.519859209656715L271.3640402810573,45.60935141891241L271.5082677805424,11.056812465190887L271.7246090297699,45.60935141891241L271.79672277951244,62.88562089577317" fill="none"></path></g></g></g></g></g></g><g transform="translate(41, 176)" clip-path="url(#clip_1)"><clipPath id="clip_1"><rect width="288" height="23"></rect></clipPath><g><g><line x1="0" y1="0" x2="0" y2="5" style="visibility: inherit;" fill="rgb(0, 0, 0)" stroke="rgb(204, 204, 204)" stroke-width="1px"></line><line x1="36.05687487125397" y1="0" x2="36.05687487125397" y2="5" style="visibility: inherit;" fill="rgb(0, 0, 0)" stroke="rgb(204, 204, 204)" stroke-width="1px"></line><line x1="72.11374974250793" y1="0" x2="72.11374974250793" y2="5" style="visibility: inherit;" fill="rgb(0, 0, 0)" stroke="rgb(204, 204, 204)" stroke-width="1px"></line><line x1="108.1706246137619" y1="0" x2="108.1706246137619" y2="5" style="visibility: inherit;" fill="rgb(0, 0, 0)" stroke="rgb(204, 204, 204)" stroke-width="1px"></line><line x1="144.22749948501587" y1="0" x2="144.22749948501587" y2="5" style="visibility: inherit;" fill="rgb(0, 0, 0)" stroke="rgb(204, 204, 204)" stroke-width="1px"></line><line x1="180.28437435626984" y1="0" x2="180.28437435626984" y2="5" style="visibility: inherit;" fill="rgb(0, 0, 0)" stroke="rgb(204, 204, 204)" stroke-width="1px"></line><line x1="216.3412492275238" y1="0" x2="216.3412492275238" y2="5" style="visibility: inherit;" fill="rgb(0, 0, 0)" stroke="rgb(204, 204, 204)" stroke-width="1px"></line><line x1="252.39812409877777" y1="0" x2="252.39812409877777" y2="5" style="visibility: inherit;" fill="rgb(0, 0, 0)" stroke="rgb(204, 204, 204)" stroke-width="1px"></line><line x1="288.45499897003174" y1="0" x2="288.45499897003174" y2="5" style="visibility: inherit;" fill="rgb(0, 0, 0)" stroke="rgb(204, 204, 204)" stroke-width="1px"></line></g><g transform="translate(0, 8)"><text style="text-anchor: middle; visibility: hidden; font-family: Roboto, sans-serif; font-size: 12px; font-weight: 200;" x="0" y="0" dx="0em" dy="0.95em" fill="rgb(33, 33, 33)" stroke="none" stroke-width="1px">-1k</text><text style="text-anchor: middle; visibility: inherit; font-family: Roboto, sans-serif; font-size: 12px; font-weight: 200;" x="36.05687487125397" y="0" dx="0em" dy="0.95em" fill="rgb(33, 33, 33)" stroke="none" stroke-width="1px">0</text><text style="text-anchor: middle; visibility: inherit; font-family: Roboto, sans-serif; font-size: 12px; font-weight: 200;" x="72.11374974250793" y="0" dx="0em" dy="0.95em" fill="rgb(33, 33, 33)" stroke="none" stroke-width="1px">1k</text><text style="text-anchor: middle; visibility: inherit; font-family: Roboto, sans-serif; font-size: 12px; font-weight: 200;" x="108.1706246137619" y="0" dx="0em" dy="0.95em" fill="rgb(33, 33, 33)" stroke="none" stroke-width="1px">2k</text><text style="text-anchor: middle; visibility: inherit; font-family: Roboto, sans-serif; font-size: 12px; font-weight: 200;" x="144.22749948501587" y="0" dx="0em" dy="0.95em" fill="rgb(33, 33, 33)" stroke="none" stroke-width="1px">3k</text><text style="text-anchor: middle; visibility: inherit; font-family: Roboto, sans-serif; font-size: 12px; font-weight: 200;" x="180.28437435626984" y="0" dx="0em" dy="0.95em" fill="rgb(33, 33, 33)" stroke="none" stroke-width="1px">4k</text><text style="text-anchor: middle; visibility: inherit; font-family: Roboto, sans-serif; font-size: 12px; font-weight: 200;" x="216.3412492275238" y="0" dx="0em" dy="0.95em" fill="rgb(33, 33, 33)" stroke="none" stroke-width="1px">5k</text><text style="text-anchor: middle; visibility: inherit; font-family: Roboto, sans-serif; font-size: 12px; font-weight: 200;" x="252.39812409877777" y="0" dx="0em" dy="0.95em" fill="rgb(33, 33, 33)" stroke="none" stroke-width="1px">6k</text><text style="text-anchor: middle; visibility: hidden; font-family: Roboto, sans-serif; font-size: 12px; font-weight: 200;" x="288.45499897003174" y="0" dx="0em" dy="0.95em" fill="rgb(33, 33, 33)" stroke="none" stroke-width="1px">7k</text></g><line x1="0" y1="0" x2="288.45499897003174" y2="0" fill="rgb(0, 0, 0)" stroke="rgb(204, 204, 204)" stroke-width="1px"></line></g></g></g></g></svg>